<?xml version="1.0" encoding="UTF-8"?>
<svg id="Layer_1" data-name="Layer 1" xmlns="http://www.w3.org/2000/svg" viewBox="0 0 543.6 898.24">
  <defs>
    <style>
      .cls-1 {
        fill: #e5e7eb;
      }
    </style>
  </defs>
  <path class="cls-1" d="m437.24,508.6C62.8,420.12,86.58,422.78,74.37,429.75c-12.01,6.88-6.45-3.09-67.68,230.44-54.21,206.46,235.47,329.1,361.8,154.93,27.47-37.87,25.67-47.72,86.29-278.81,3.21-12.21-4.58-24.63-17.54-27.71Zm-314.09,22.44c-34.38,115.29-94.71,230.84-1.45,299.42-54.77-32-85.05-95.48-68.31-159.25,62.5-238.3,1-205.99,348.86-123.79-5.09,19.42-258.35-85.98-279.1-16.39Z"/>
  <path class="cls-1" d="m106.37,389.64c374.43,88.48,350.66,85.82,362.87,78.86,12.01-6.88,6.45,3.09,67.68-230.44C591.13,31.59,301.45-91.05,175.12,83.12c-27.47,37.87-25.67,47.72-86.29,278.81-3.21,12.21,4.58,24.63,17.54,27.71Zm314.09-22.44c34.38-115.29,94.71-230.84,1.45-299.42,54.77,32,85.05,95.48,68.31,159.25-62.5,238.3-1,205.99-348.86,123.79,5.09-19.42,258.35,85.98,279.1,16.39Z"/>
</svg>